<svg width="13" height="13" viewBox="0 0 13 13" fill="none" xmlns="http://www.w3.org/2000/svg">
<path d="M5.53268 0.690968C5.83203 -0.230342 7.13544 -0.230343 7.43479 0.690968L8.27985 3.29178C8.41372 3.7038 8.79768 3.98276 9.2309 3.98276H11.9656C12.9343 3.98276 13.3371 5.22238 12.5533 5.79178L10.341 7.39917C9.99047 7.65381 9.84382 8.10518 9.97769 8.5172L10.8227 11.118C11.1221 12.0393 10.0676 12.8055 9.2839 12.2361L7.07152 10.6287C6.72103 10.374 6.24644 10.374 5.89595 10.6287L3.68357 12.2361C2.89985 12.8055 1.84537 12.0393 2.14472 11.118L2.98978 8.51721C3.12365 8.10518 2.97699 7.65381 2.62651 7.39917L0.414125 5.79178C-0.369588 5.22238 0.0331864 3.98276 1.00191 3.98276H3.73657C4.16979 3.98276 4.55375 3.7038 4.68762 3.29178L5.53268 0.690968Z" fill="#FFA235"/>
</svg>
